<svg xmlns="http://www.w3.org/2000/svg" viewBox="0 0 1200 675" role="img" aria-labelledby="title desc">
  <title id="title">Thumbnail Anfänger</title>
  <desc id="desc">Ruhige Einstiegsgrafik mit klaren Satzbausteinen und einfachen Verbindungslinien.</desc>
  <defs>
    <linearGradient id="bg" x1="0" y1="0" x2="1" y2="1">
      <stop offset="0%" stop-color="#f5efe4"/>
      <stop offset="100%" stop-color="#ddd2bf"/>
    </linearGradient>
  </defs>
  <rect width="1200" height="675" rx="36" fill="url(#bg)"/>
  <circle cx="160" cy="130" r="110" fill="#7ea9c5" opacity=".22"/>
  <circle cx="1060" cy="110" r="120" fill="#d28a52" opacity=".18"/>
  <rect x="88" y="120" width="1024" height="435" rx="28" fill="#fff9f2" stroke="#d2c2ad"/>
  <rect x="140" y="190" width="250" height="78" rx="16" fill="#ddeaf4"/>
  <rect x="430" y="190" width="198" height="78" rx="16" fill="#e8f1df"/>
  <rect x="664" y="190" width="296" height="78" rx="16" fill="#f4e6d8"/>
  <path d="M390 228H430" stroke="#567f98" stroke-width="10" stroke-linecap="round"/>
  <path d="M628 228H664" stroke="#6b8d5d" stroke-width="10" stroke-linecap="round"/>
  <rect x="140" y="320" width="170" height="54" rx="14" fill="#22577a" opacity=".18"/>
  <rect x="328" y="320" width="210" height="54" rx="14" fill="#2f8f57" opacity=".16"/>
  <rect x="556" y="320" width="158" height="54" rx="14" fill="#c56a30" opacity=".16"/>
  <rect x="732" y="320" width="228" height="54" rx="14" fill="#22577a" opacity=".12"/>
  <text x="140" y="500" fill="#7d3e21" font-size="66" font-family="Georgia, serif">Anfänger</text>
  <text x="140" y="548" fill="#5d6468" font-size="28" font-family="Avenir Next, Arial, sans-serif">klare Satzbausteine · eindeutige Bezugssignale</text>
</svg>
