<svg xmlns="http://www.w3.org/2000/svg" viewBox="0 0 1200 675" role="img" aria-labelledby="title desc">
  <title id="title">Thumbnail Experte</title>
  <desc id="desc">Verschachtelte Linien, Kreuzungen und enge geometrische Felder für feine Unterscheidungen.</desc>
  <defs>
    <linearGradient id="bg" x1="0" y1="0" x2="1" y2="1">
      <stop offset="0%" stop-color="#e9e1d3"/>
      <stop offset="100%" stop-color="#bcced2"/>
    </linearGradient>
  </defs>
  <rect width="1200" height="675" rx="36" fill="url(#bg)"/>
  <rect x="90" y="88" width="1020" height="499" rx="32" fill="#fffaf4" stroke="#c4d1d5"/>
  <path d="M158 470C264 214 402 214 520 470S774 726 1038 214" fill="none" stroke="#22577a" stroke-width="10" stroke-linecap="round"/>
  <path d="M158 214C274 480 418 476 536 214S790 -40 1038 470" fill="none" stroke="#c56a30" stroke-width="10" stroke-linecap="round" opacity=".9"/>
  <path d="M214 156L986 156" stroke="#d6d0c3" stroke-width="2"/>
  <path d="M214 518L986 518" stroke="#d6d0c3" stroke-width="2"/>
  <rect x="246" y="246" width="166" height="74" rx="16" fill="#e7f1df" opacity=".92"/>
  <rect x="518" y="356" width="198" height="74" rx="16" fill="#ddeaf4" opacity=".92"/>
  <rect x="778" y="240" width="170" height="74" rx="16" fill="#f4e7d9" opacity=".92"/>
  <text x="144" y="558" fill="#7d3e21" font-size="64" font-family="Georgia, serif">Experte</text>
  <text x="144" y="606" fill="#5d6468" font-size="28" font-family="Avenir Next, Arial, sans-serif">verschachtelte Lesarten · minimale Signale erkennen</text>
</svg>
