<svg xmlns="http://www.w3.org/2000/svg" viewBox="0 0 1200 675" role="img" aria-labelledby="title desc">
  <title id="title">Thumbnail Fortgeschritten</title>
  <desc id="desc">Mehrlagige Satzbahnen und strukturierte Blöcke für ein solides mittleres Niveau.</desc>
  <defs>
    <linearGradient id="bg" x1="0" y1="0" x2="1" y2="1">
      <stop offset="0%" stop-color="#ebe6da"/>
      <stop offset="100%" stop-color="#cfd8db"/>
    </linearGradient>
  </defs>
  <rect width="1200" height="675" rx="36" fill="url(#bg)"/>
  <rect x="88" y="96" width="1024" height="483" rx="32" fill="#fff9f1" stroke="#cfd6d8"/>
  <g opacity=".88">
    <path d="M152 210H1050" stroke="#d3c3ae" stroke-width="2"/>
    <path d="M152 290H1050" stroke="#d3c3ae" stroke-width="2"/>
    <path d="M152 370H1050" stroke="#d3c3ae" stroke-width="2"/>
    <path d="M152 450H1050" stroke="#d3c3ae" stroke-width="2"/>
  </g>
  <rect x="160" y="164" width="210" height="64" rx="14" fill="#ddeaf4"/>
  <rect x="396" y="164" width="156" height="64" rx="14" fill="#f4e7d9"/>
  <rect x="580" y="164" width="234" height="64" rx="14" fill="#e7f1df"/>
  <rect x="842" y="164" width="184" height="64" rx="14" fill="#eadff0"/>
  <rect x="190" y="324" width="188" height="64" rx="14" fill="#e7f1df"/>
  <rect x="404" y="324" width="270" height="64" rx="14" fill="#ddeaf4"/>
  <rect x="700" y="324" width="220" height="64" rx="14" fill="#f4e7d9"/>
  <path d="M370 196C420 252 508 264 580 196" fill="none" stroke="#22577a" stroke-width="8" stroke-linecap="round"/>
  <path d="M814 196C850 240 928 250 980 196" fill="none" stroke="#c56a30" stroke-width="8" stroke-linecap="round"/>
  <path d="M378 356C460 290 616 290 700 356" fill="none" stroke="#2f8f57" stroke-width="8" stroke-linecap="round"/>
  <text x="140" y="530" fill="#7d3e21" font-size="62" font-family="Georgia, serif">Fortgeschritten</text>
  <text x="140" y="578" fill="#5d6468" font-size="28" font-family="Avenir Next, Arial, sans-serif">mehrschichtige Satzstrukturen · gezielte Präzision</text>
</svg>
