<svg xmlns="http://www.w3.org/2000/svg" viewBox="0 0 1200 675" role="img" aria-labelledby="title desc">
  <title id="title">Thumbnail Leicht fortgeschritten</title>
  <desc id="desc">Verzweigte Linien und moderate Überlagerungen für erste Mehrdeutigkeiten.</desc>
  <defs>
    <linearGradient id="bg" x1="0" y1="0" x2="1" y2="1">
      <stop offset="0%" stop-color="#f0eadf"/>
      <stop offset="100%" stop-color="#d4d9d0"/>
    </linearGradient>
  </defs>
  <rect width="1200" height="675" rx="36" fill="url(#bg)"/>
  <rect x="92" y="98" width="1016" height="479" rx="30" fill="#fffaf4" stroke="#ced2c6"/>
  <path d="M170 250C250 210 330 210 410 250S570 290 650 250 810 210 890 250" fill="none" stroke="#22577a" stroke-width="10" stroke-linecap="round"/>
  <path d="M170 340C250 380 330 380 410 340S570 300 650 340 810 380 890 340" fill="none" stroke="#2f8f57" stroke-width="10" stroke-linecap="round" opacity=".8"/>
  <circle cx="410" cy="250" r="24" fill="#22577a"/>
  <circle cx="650" cy="250" r="24" fill="#c56a30"/>
  <circle cx="410" cy="340" r="24" fill="#2f8f57"/>
  <circle cx="650" cy="340" r="24" fill="#7d3e21"/>
  <rect x="156" y="438" width="186" height="58" rx="16" fill="#ddeaf4"/>
  <rect x="364" y="438" width="248" height="58" rx="16" fill="#e9f3e2"/>
  <rect x="634" y="438" width="170" height="58" rx="16" fill="#f4e7d9"/>
  <rect x="826" y="438" width="206" height="58" rx="16" fill="#e4e1ef"/>
  <text x="140" y="158" fill="#7d3e21" font-size="58" font-family="Georgia, serif">Leicht fortgeschritten</text>
  <text x="140" y="212" fill="#5d6468" font-size="28" font-family="Avenir Next, Arial, sans-serif">erste Verzweigungen · plausible Ablenkungen</text>
</svg>
